<svg width="45" height="45" viewBox="0 0 45 45" fill="none" xmlns="http://www.w3.org/2000/svg">
<path d="M42.3373 23.9014C44.572 23.6358 44.572 20.3893 42.3373 20.1236L40.3761 19.8892C40.0792 18.389 40.087 18.4437 39.7901 16.9435L41.513 15.9747C43.4781 14.873 42.2357 11.8765 40.0675 12.4859L38.1649 13.0212C37.3172 11.7515 37.3445 11.7944 36.4967 10.5248L37.7196 8.96987C39.1143 7.20012 36.8171 4.90686 35.0474 6.29766L33.4925 7.52047C32.2228 6.67271 32.2658 6.70006 30.9961 5.85229L31.5313 3.94971C32.1407 1.78147 29.1443 0.53913 28.0426 2.50422L27.0737 4.22709C25.5735 3.93018 25.6282 3.93799 24.128 3.64108L23.8936 1.67599C23.628 -0.558664 20.3815 -0.558664 20.1158 1.67599L19.8814 3.64108C18.3812 3.93799 18.4359 3.93018 16.9357 4.22709L15.9707 2.50422C14.869 0.53913 11.8726 1.78147 12.482 3.94971L13.0173 5.85229C11.7476 6.70006 11.7905 6.67271 10.5208 7.52047L8.96596 6.29766C7.19621 4.90296 4.90296 7.20012 6.29376 8.96987L7.51656 10.5248C6.6688 11.7944 6.69615 11.7515 5.84839 13.0212L3.94581 12.4859C1.77757 11.8765 0.535223 14.873 2.50031 15.9747L4.22318 16.9435C3.92627 18.4437 3.93409 18.389 3.63717 19.8892L1.67599 20.1236C-0.558664 20.3893 -0.558664 23.6358 1.67599 23.9014L3.63717 24.1358C3.93409 25.636 3.92627 25.5813 4.22318 27.0815L2.49641 28.0504C0.531316 29.1521 1.77366 32.1486 3.9419 31.5391L5.84448 31.0039C6.69224 32.2736 6.6649 32.2306 7.51266 33.5003L6.28985 35.0552C4.89514 36.8249 7.19231 39.1182 8.96206 37.7274L10.5169 36.5046C11.7866 37.3523 11.7437 37.325 13.0133 38.1727L12.4781 40.0753C11.8687 42.2436 14.8651 43.4859 15.9668 41.5208L16.9357 39.7979C18.4359 40.0949 18.3812 40.087 19.8814 40.384L20.1158 42.349C20.3815 44.5837 23.628 44.5837 23.8936 42.349L24.128 40.384C25.6282 40.087 25.5735 40.0949 27.0737 39.7979L28.0426 41.5208C29.1443 43.4859 32.1407 42.2436 31.5313 40.0753L30.9961 38.1727C32.2658 37.325 32.2228 37.3523 33.4925 36.5046L35.0474 37.7274C36.8171 39.1221 39.1104 36.8249 37.7196 35.0552L36.4967 33.5003C37.3445 32.2306 37.3172 32.2736 38.1649 31.0039L40.0675 31.5391C42.2357 32.1486 43.4781 29.1521 41.513 28.0504L39.7901 27.0815C40.087 25.5813 40.0792 25.636 40.3761 24.1358L42.3373 23.9014ZM23.4326 35.942C23.1123 35.9732 22.7919 36.0006 22.4677 36.0084C21.8269 36.0279 21.198 36.0006 20.5807 35.9381V30.6405C20.5807 29.8514 21.2175 29.2146 22.0067 29.2146C22.7958 29.2146 23.4326 29.8514 23.4326 30.6405V35.942ZM36.0787 22.3973C35.8717 28.8747 31.2109 34.2934 25.0852 35.6724V27.4331L30.3632 24.3898V16.377L27.7144 14.8495V22.1668L27.7066 22.1707C24.1749 24.2062 19.8267 24.2062 16.2989 22.1668V14.8378L13.6501 16.377V24.3898L18.9281 27.437V35.6724C12.4898 34.2348 7.71581 28.3942 7.93459 21.4753C8.16899 14.1033 14.1736 8.09867 21.5457 7.86426C29.6834 7.60642 36.3366 14.2596 36.0787 22.3973Z" fill="#EE2852"/>
<path d="M22.0064 11.5981L17.6738 14.0985V19.103L22.0064 21.6033L26.339 19.103V14.1024L22.0064 11.5981ZM22.0064 19.1108C20.6195 19.1108 19.4983 17.9857 19.4983 16.6027C19.4983 15.2197 20.6234 14.0946 22.0064 14.0946C23.3933 14.0946 24.5145 15.2197 24.5145 16.6027C24.5145 17.9857 23.3894 19.1108 22.0064 19.1108Z" fill="#FFC73E"/>
<path d="M22.0072 17.6502C22.5856 17.6502 23.0545 17.1813 23.0545 16.6029C23.0545 16.0245 22.5856 15.5557 22.0072 15.5557C21.4288 15.5557 20.96 16.0245 20.96 16.6029C20.96 17.1813 21.4288 17.6502 22.0072 17.6502Z" fill="#FFC73E"/>
</svg>
