<svg width="125" height="45" viewBox="0 0 125 45" fill="none" xmlns="http://www.w3.org/2000/svg">
<path d="M42.3373 23.9014C44.572 23.6358 44.572 20.3893 42.3373 20.1236L40.3761 19.8892C40.0792 18.389 40.087 18.4437 39.7901 16.9435L41.513 15.9747C43.4781 14.873 42.2357 11.8765 40.0675 12.4859L38.1649 13.0212C37.3172 11.7515 37.3445 11.7944 36.4967 10.5248L37.7196 8.96987C39.1143 7.20012 36.8171 4.90686 35.0474 6.29766L33.4925 7.52047C32.2228 6.67271 32.2658 6.70006 30.9961 5.85229L31.5313 3.94971C32.1407 1.78147 29.1443 0.53913 28.0426 2.50422L27.0737 4.22709C25.5735 3.93018 25.6282 3.93799 24.128 3.64108L23.8936 1.67599C23.628 -0.558664 20.3815 -0.558664 20.1158 1.67599L19.8814 3.64108C18.3812 3.93799 18.4359 3.93018 16.9357 4.22709L15.9707 2.50422C14.869 0.53913 11.8726 1.78147 12.482 3.94971L13.0173 5.85229C11.7476 6.70006 11.7905 6.67271 10.5208 7.52047L8.96596 6.29766C7.19621 4.90296 4.90296 7.20012 6.29376 8.96987L7.51656 10.5248C6.6688 11.7944 6.69615 11.7515 5.84839 13.0212L3.94581 12.4859C1.77757 11.8765 0.535223 14.873 2.50031 15.9747L4.22318 16.9435C3.92627 18.4437 3.93409 18.389 3.63717 19.8892L1.67599 20.1236C-0.558664 20.3893 -0.558664 23.6358 1.67599 23.9014L3.63717 24.1358C3.93409 25.636 3.92627 25.5813 4.22318 27.0815L2.49641 28.0504C0.531316 29.1521 1.77366 32.1486 3.9419 31.5391L5.84448 31.0039C6.69224 32.2736 6.6649 32.2306 7.51266 33.5003L6.28985 35.0552C4.89514 36.8249 7.19231 39.1182 8.96206 37.7274L10.5169 36.5046C11.7866 37.3523 11.7437 37.325 13.0133 38.1727L12.4781 40.0753C11.8687 42.2436 14.8651 43.4859 15.9668 41.5208L16.9357 39.7979C18.4359 40.0949 18.3812 40.087 19.8814 40.384L20.1158 42.349C20.3815 44.5837 23.628 44.5837 23.8936 42.349L24.128 40.384C25.6282 40.087 25.5735 40.0949 27.0737 39.7979L28.0426 41.5208C29.1443 43.4859 32.1407 42.2436 31.5313 40.0753L30.9961 38.1727C32.2658 37.325 32.2228 37.3523 33.4925 36.5046L35.0474 37.7274C36.8171 39.1221 39.1104 36.8249 37.7196 35.0552L36.4967 33.5003C37.3445 32.2306 37.3172 32.2736 38.1649 31.0039L40.0675 31.5391C42.2357 32.1486 43.4781 29.1521 41.513 28.0504L39.7901 27.0815C40.087 25.5813 40.0792 25.636 40.3761 24.1358L42.3373 23.9014ZM23.4326 35.942C23.1123 35.9732 22.7919 36.0006 22.4677 36.0084C21.8269 36.0279 21.198 36.0006 20.5807 35.9381V30.6406C20.5807 29.8514 21.2175 29.2146 22.0067 29.2146C22.7958 29.2146 23.4326 29.8514 23.4326 30.6406V35.942ZM36.0787 22.3973C35.8717 28.8747 31.2109 34.2934 25.0852 35.6724V27.4331L30.3632 24.3898V16.377L27.7144 14.8495V22.1668L27.7066 22.1707C24.1749 24.2062 19.8267 24.2062 16.2989 22.1668V14.8378L13.6501 16.377V24.3898L18.9281 27.437V35.6724C12.4898 34.2348 7.71581 28.3942 7.93459 21.4753C8.16899 14.1033 14.1736 8.09867 21.5457 7.86426C29.6834 7.60642 36.3366 14.2596 36.0787 22.3973Z" fill="#EE2852"/>
<path d="M22.0064 11.5981L17.6738 14.0985V19.103L22.0064 21.6033L26.339 19.103V14.1024L22.0064 11.5981ZM22.0064 19.1108C20.6195 19.1108 19.4983 17.9857 19.4983 16.6027C19.4983 15.2197 20.6234 14.0946 22.0064 14.0946C23.3933 14.0946 24.5145 15.2197 24.5145 16.6027C24.5145 17.9857 23.3894 19.1108 22.0064 19.1108Z" fill="#FFC73E"/>
<path d="M22.0072 17.6502C22.5856 17.6502 23.0545 17.1813 23.0545 16.6029C23.0545 16.0245 22.5856 15.5557 22.0072 15.5557C21.4288 15.5557 20.96 16.0245 20.96 16.6029C20.96 17.1813 21.4288 17.6502 22.0072 17.6502Z" fill="#FFC73E"/>
<path d="M68.5078 19.6016H65.0859C65.0234 19.1589 64.8958 18.7656 64.7031 18.4219C64.5104 18.0729 64.263 17.776 63.9609 17.5312C63.6589 17.2865 63.3099 17.099 62.9141 16.9687C62.5234 16.8385 62.099 16.7734 61.6406 16.7734C60.8125 16.7734 60.0911 16.9792 59.4766 17.3906C58.862 17.7969 58.3854 18.3906 58.0469 19.1719C57.7083 19.9479 57.5391 20.8906 57.5391 22C57.5391 23.1406 57.7083 24.099 58.0469 24.875C58.3906 25.651 58.8698 26.237 59.4844 26.6328C60.099 27.0286 60.8099 27.2266 61.6172 27.2266C62.0703 27.2266 62.4896 27.1667 62.875 27.0469C63.2656 26.9271 63.612 26.7526 63.9141 26.5234C64.2161 26.2891 64.4661 26.0052 64.6641 25.6719C64.8672 25.3385 65.0078 24.9583 65.0859 24.5312L68.5078 24.5469C68.4193 25.2812 68.1979 25.9896 67.8438 26.6719C67.4948 27.349 67.0234 27.9557 66.4297 28.4922C65.8411 29.0234 65.138 29.4453 64.3203 29.7578C63.5078 30.0651 62.5885 30.2187 61.5625 30.2187C60.1354 30.2187 58.8594 29.8958 57.7344 29.25C56.6146 28.6042 55.7292 27.6693 55.0781 26.4453C54.4323 25.2214 54.1094 23.7396 54.1094 22C54.1094 20.2552 54.4375 18.7708 55.0938 17.5469C55.75 16.3229 56.6406 15.3906 57.7656 14.75C58.8906 14.1042 60.1563 13.7812 61.5625 13.7812C62.4896 13.7812 63.349 13.9115 64.1406 14.1719C64.9375 14.4323 65.6432 14.8125 66.2578 15.3125C66.8724 15.8073 67.3724 16.4141 67.7578 17.1328C68.1484 17.8516 68.3984 18.6745 68.5078 19.6016ZM74.293 30.2266C73.5273 30.2266 72.8451 30.0938 72.2461 29.8281C71.6471 29.5573 71.1732 29.1589 70.8242 28.6328C70.4805 28.1016 70.3086 27.4401 70.3086 26.6484C70.3086 25.9818 70.431 25.4219 70.6758 24.9687C70.9206 24.5156 71.2539 24.151 71.6758 23.875C72.0977 23.599 72.5768 23.3906 73.1133 23.25C73.6549 23.1094 74.2227 23.0104 74.8164 22.9531C75.5143 22.8802 76.0768 22.8125 76.5039 22.75C76.931 22.6823 77.2409 22.5833 77.4336 22.4531C77.6263 22.3229 77.7227 22.1302 77.7227 21.875V21.8281C77.7227 21.3333 77.5664 20.9505 77.2539 20.6797C76.9466 20.4089 76.5091 20.2734 75.9414 20.2734C75.3424 20.2734 74.8659 20.4062 74.5117 20.6719C74.1576 20.9323 73.9232 21.2604 73.8086 21.6562L70.7305 21.4062C70.8867 20.6771 71.194 20.0469 71.6523 19.5156C72.1107 18.9792 72.7018 18.5677 73.4258 18.2812C74.1549 17.9896 74.9987 17.8438 75.957 17.8438C76.6237 17.8438 77.2617 17.9219 77.8711 18.0781C78.4857 18.2344 79.0299 18.4766 79.5039 18.8047C79.9831 19.1328 80.3607 19.5547 80.6367 20.0703C80.9128 20.5807 81.0508 21.1927 81.0508 21.9062V30H77.8945V28.3359H77.8008C77.6081 28.7109 77.3503 29.0417 77.0273 29.3281C76.7044 29.6094 76.3164 29.8307 75.8633 29.9922C75.4102 30.1484 74.8867 30.2266 74.293 30.2266ZM75.2461 27.9297C75.7357 27.9297 76.168 27.8333 76.543 27.6406C76.918 27.4427 77.2122 27.1771 77.4258 26.8438C77.6393 26.5104 77.7461 26.1328 77.7461 25.7109V24.4375C77.6419 24.5052 77.4987 24.5677 77.3164 24.625C77.1393 24.6771 76.9388 24.7266 76.7148 24.7734C76.4909 24.8151 76.2669 24.8542 76.043 24.8906C75.819 24.9219 75.6159 24.9505 75.4336 24.9766C75.043 25.0339 74.7018 25.125 74.4102 25.25C74.1185 25.375 73.8919 25.5443 73.7305 25.7578C73.569 25.9661 73.4883 26.2266 73.4883 26.5391C73.4883 26.9922 73.6523 27.3385 73.9805 27.5781C74.3138 27.8125 74.7357 27.9297 75.2461 27.9297ZM83.6328 30V18H86.8594V20.0937H86.9844C87.2031 19.349 87.5703 18.7865 88.0859 18.4063C88.6016 18.0208 89.1953 17.8281 89.8672 17.8281C90.0339 17.8281 90.2135 17.8385 90.4063 17.8594C90.599 17.8802 90.7682 17.9089 90.9141 17.9453V20.8984C90.7578 20.8516 90.5417 20.8099 90.2656 20.7734C89.9896 20.737 89.737 20.7188 89.5078 20.7188C89.0182 20.7188 88.5807 20.8255 88.1953 21.0391C87.8151 21.2474 87.513 21.5391 87.2891 21.9141C87.0703 22.2891 86.9609 22.7214 86.9609 23.2109V30H83.6328ZM92.6348 30V18H95.9629V30H92.6348ZM94.3066 16.4531C93.8118 16.4531 93.3874 16.2891 93.0332 15.9609C92.6842 15.6276 92.5098 15.2292 92.5098 14.7656C92.5098 14.3073 92.6842 13.9141 93.0332 13.5859C93.3874 13.2526 93.8118 13.0859 94.3066 13.0859C94.8014 13.0859 95.2233 13.2526 95.5723 13.5859C95.9264 13.9141 96.1035 14.3073 96.1035 14.7656C96.1035 15.2292 95.9264 15.6276 95.5723 15.9609C95.2233 16.2891 94.8014 16.4531 94.3066 16.4531ZM101.957 23.0625V30H98.6289V18H101.801V20.1172H101.941C102.207 19.4193 102.652 18.8672 103.277 18.4609C103.902 18.0495 104.66 17.8438 105.551 17.8438C106.384 17.8438 107.111 18.026 107.73 18.3906C108.35 18.7552 108.832 19.276 109.176 19.9531C109.52 20.625 109.691 21.4271 109.691 22.3594V30H106.363V22.9531C106.368 22.2187 106.181 21.6458 105.801 21.2344C105.421 20.8177 104.897 20.6094 104.23 20.6094C103.783 20.6094 103.387 20.7057 103.043 20.8984C102.704 21.0911 102.439 21.3724 102.246 21.7422C102.059 22.1068 101.962 22.5469 101.957 23.0625ZM117.721 34.75C116.643 34.75 115.718 34.6016 114.947 34.3047C114.182 34.013 113.572 33.6146 113.119 33.1094C112.666 32.6042 112.372 32.0365 112.236 31.4062L115.314 30.9922C115.408 31.2318 115.557 31.4557 115.76 31.6641C115.963 31.8724 116.231 32.0391 116.564 32.1641C116.903 32.2943 117.314 32.3594 117.799 32.3594C118.523 32.3594 119.119 32.1823 119.588 31.8281C120.062 31.4792 120.299 30.8932 120.299 30.0703V27.875H120.158C120.012 28.2083 119.794 28.5234 119.502 28.8203C119.21 29.1172 118.835 29.3594 118.377 29.5469C117.919 29.7344 117.372 29.8281 116.736 29.8281C115.835 29.8281 115.015 29.6198 114.275 29.2031C113.541 28.7812 112.955 28.138 112.518 27.2734C112.085 26.4036 111.869 25.3047 111.869 23.9766C111.869 22.6172 112.09 21.4818 112.533 20.5703C112.976 19.6589 113.564 18.9766 114.299 18.5234C115.038 18.0703 115.848 17.8438 116.729 17.8438C117.4 17.8438 117.963 17.9583 118.416 18.1875C118.869 18.4115 119.234 18.6927 119.51 19.0312C119.791 19.3646 120.007 19.6927 120.158 20.0156H120.283V18H123.588V30.1172C123.588 31.138 123.338 31.9922 122.838 32.6797C122.338 33.3672 121.645 33.8828 120.76 34.2266C119.88 34.5755 118.867 34.75 117.721 34.75ZM117.791 27.3281C118.327 27.3281 118.781 27.1953 119.15 26.9297C119.525 26.6589 119.812 26.2734 120.01 25.7734C120.213 25.2682 120.314 24.6641 120.314 23.9609C120.314 23.2578 120.215 22.6484 120.018 22.1328C119.82 21.612 119.533 21.2083 119.158 20.9219C118.783 20.6354 118.327 20.4922 117.791 20.4922C117.244 20.4922 116.783 20.6406 116.408 20.9375C116.033 21.2292 115.749 21.6354 115.557 22.1562C115.364 22.6771 115.268 23.2786 115.268 23.9609C115.268 24.6536 115.364 25.2526 115.557 25.7578C115.755 26.2578 116.038 26.6458 116.408 26.9219C116.783 27.1927 117.244 27.3281 117.791 27.3281Z" fill="#1B1B1B"/>
</svg>
