<svg width="15" height="13" viewBox="0 0 15 13" fill="none" xmlns="http://www.w3.org/2000/svg">
<path d="M1.50946 5.40239C1.56786 5.39291 1.62696 5.38854 1.68609 5.3893H11.7548L11.5353 5.28719C11.3207 5.18561 11.1255 5.04737 10.9583 4.87872L8.1348 2.05519C7.76294 1.7002 7.70045 1.12915 7.98673 0.702137C8.31992 0.247111 8.95889 0.148313 9.41394 0.481501C9.45071 0.508434 9.48565 0.537793 9.51849 0.569385L14.6243 5.67523C15.0234 6.0738 15.0237 6.72036 14.6251 7.11939C14.6249 7.11964 14.6246 7.11993 14.6243 7.12018L9.51849 12.226C9.11915 12.6243 8.47259 12.6234 8.07433 12.224C8.04299 12.1926 8.01373 12.1591 7.98673 12.1239C7.70045 11.6969 7.76294 11.1258 8.1348 10.7709L10.9532 7.94222C11.1031 7.79224 11.2753 7.66648 11.4638 7.5695L11.7702 7.43164H1.74229C1.22063 7.45101 0.762953 7.08661 0.664952 6.57386C0.574675 6.01716 0.952764 5.4927 1.50946 5.40239Z" fill="#1B1B1B"/>
</svg>
