<svg width="20" height="14" viewBox="0 0 20 14" fill="none" xmlns="http://www.w3.org/2000/svg">
<path d="M19.7338 6.37062L13.3701 0.245623C13.1987 0.0862349 12.969 -0.00196054 12.7307 3.30772e-05C12.4923 0.00202669 12.2643 0.0940497 12.0957 0.256282C11.9272 0.418514 11.8316 0.637975 11.8295 0.867397C11.8274 1.09682 11.9191 1.31785 12.0847 1.48287L16.8965 6.11425H0.9091C0.667992 6.11425 0.436758 6.20644 0.266269 6.37053C0.0957798 6.53462 0 6.75718 0 6.98925C0 7.22131 0.0957798 7.44387 0.266269 7.60797C0.436758 7.77206 0.667992 7.86425 0.9091 7.86425H16.8965L12.0847 12.4956C11.9978 12.5763 11.9286 12.6729 11.8809 12.7796C11.8333 12.8864 11.8082 13.0012 11.8072 13.1174C11.8061 13.2336 11.8291 13.3488 11.8748 13.4563C11.9205 13.5639 11.988 13.6616 12.0734 13.7437C12.1588 13.8259 12.2603 13.8908 12.372 13.9348C12.4837 13.9788 12.6034 14.001 12.7241 14C12.8448 13.999 12.9641 13.9748 13.075 13.929C13.186 13.8831 13.2863 13.8164 13.3701 13.7329L19.7338 7.60787C19.9043 7.44379 20 7.22127 20 6.98925C20 6.75723 19.9043 6.53471 19.7338 6.37062Z" fill="white"/>
</svg>
