<svg width="35" height="35" viewBox="0 0 35 35" fill="none" xmlns="http://www.w3.org/2000/svg">
<path d="M27.6356 21.6814C26.919 20.9354 26.0548 20.5365 25.1388 20.5365C24.2302 20.5365 23.3585 20.928 22.6124 21.6741L20.2781 24.001C20.0861 23.8975 19.894 23.8015 19.7093 23.7055C19.4434 23.5725 19.1923 23.4469 18.978 23.314C16.7915 21.9252 14.8044 20.1154 12.8985 17.7737C11.9752 16.6066 11.3547 15.6241 10.904 14.6269C11.5098 14.0728 12.0712 13.4967 12.6178 12.9426C12.8247 12.7358 13.0315 12.5216 13.2383 12.3147C14.7896 10.7635 14.7896 8.75421 13.2383 7.20294L11.2217 5.18629C10.9927 4.95729 10.7563 4.72091 10.5347 4.48453C10.0915 4.02653 9.6261 3.55377 9.14594 3.11055C8.42941 2.40139 7.57252 2.02466 6.6713 2.02466C5.77009 2.02466 4.89842 2.40139 4.15973 3.11055C4.15234 3.11793 4.15234 3.11793 4.14495 3.12532L1.63337 5.65906C0.687839 6.60459 0.148588 7.75697 0.0303964 9.09401C-0.146891 11.251 0.48839 13.2603 0.975931 14.5752C2.17262 17.8033 3.96028 20.795 6.62698 24.001C9.86248 27.8644 13.7554 30.9152 18.2024 33.0648C19.9014 33.87 22.1692 34.8229 24.703 34.9854C24.8581 34.9928 25.0206 35.0002 25.1683 35.0002C26.8747 35.0002 28.3078 34.3871 29.4306 33.1682C29.438 33.1534 29.4528 33.1461 29.4602 33.1313C29.8443 32.6659 30.2875 32.2448 30.7529 31.7942C31.0705 31.4914 31.3956 31.1737 31.7132 30.8413C32.4445 30.0805 32.8286 29.194 32.8286 28.2854C32.8286 27.3694 32.4371 26.4904 31.691 25.7517L27.6356 21.6814ZM30.2801 29.4599C30.2727 29.4599 30.2727 29.4673 30.2801 29.4599C29.992 29.7702 29.6966 30.0509 29.3789 30.3612C28.8988 30.8192 28.4112 31.2993 27.9532 31.8386C27.2071 32.6364 26.3281 33.0131 25.1757 33.0131C25.0649 33.0131 24.9467 33.0131 24.8359 33.0057C22.642 32.8654 20.6032 32.0085 19.0741 31.2771C14.893 29.2531 11.2217 26.3796 8.17086 22.7378C5.6519 19.7017 3.96766 16.8947 2.85223 13.8808C2.16524 12.0414 1.91408 10.6083 2.02488 9.25652C2.09875 8.39225 2.43117 7.67571 3.04429 7.06259L5.56325 4.54362C5.92522 4.20382 6.30934 4.01915 6.68608 4.01915C7.15146 4.01915 7.52819 4.29985 7.76458 4.53624C7.77196 4.54362 7.77935 4.55101 7.78674 4.5584C8.23734 4.97946 8.66579 5.41529 9.1164 5.88067C9.34539 6.11705 9.58178 6.35344 9.81816 6.59721L11.8348 8.61386C12.6178 9.39688 12.6178 10.1208 11.8348 10.9038C11.6206 11.118 11.4138 11.3323 11.1995 11.5391C10.579 12.1744 9.98806 12.7653 9.34539 13.3415C9.33062 13.3563 9.31585 13.3637 9.30846 13.3785C8.67318 14.0137 8.79137 14.6343 8.92433 15.0553C8.93172 15.0775 8.93911 15.0996 8.9465 15.1218C9.47097 16.3924 10.2097 17.5891 11.3325 19.0147L11.3399 19.0221C13.3787 21.5337 15.5283 23.4913 17.8995 24.9908C18.2024 25.1829 18.5126 25.338 18.8081 25.4857C19.0741 25.6187 19.3252 25.7443 19.5394 25.8773C19.569 25.892 19.5985 25.9142 19.6281 25.929C19.8792 26.0545 20.1156 26.1136 20.3594 26.1136C20.9725 26.1136 21.3566 25.7295 21.4822 25.6039L24.0086 23.0776C24.2597 22.8264 24.6586 22.5236 25.124 22.5236C25.582 22.5236 25.9587 22.8117 26.1877 23.0628C26.1951 23.0702 26.1951 23.0702 26.2025 23.0776L30.2727 27.1478C31.0336 27.9013 31.0336 28.6769 30.2801 29.4599Z" fill="#EE2852"/>
<path d="M18.8892 8.3257C20.8246 8.65073 22.5827 9.56672 23.9862 10.9702C25.3898 12.3738 26.2984 14.1319 26.6308 16.0673C26.712 16.5548 27.1331 16.8946 27.6133 16.8946C27.6724 16.8946 27.7241 16.8872 27.7832 16.8798C28.3298 16.7912 28.6918 16.2741 28.6031 15.7275C28.2042 13.3858 27.0962 11.251 25.4045 9.55933C23.7129 7.86771 21.5781 6.75966 19.2364 6.36076C18.6898 6.27212 18.1801 6.63408 18.084 7.17333C17.988 7.71258 18.3426 8.23706 18.8892 8.3257Z" fill="#EE2852"/>
<path d="M34.9339 15.4392C34.2765 11.5832 32.4593 8.07441 29.667 5.28213C26.8747 2.48985 23.3659 0.672646 19.5099 0.0152035C18.9706 -0.0808274 18.4609 0.288522 18.3649 0.827773C18.2763 1.37441 18.6382 1.88411 19.1849 1.98014C22.6272 2.56372 25.7667 4.19624 28.2635 6.68566C30.7603 9.18246 32.3854 12.3219 32.969 15.7643C33.0502 16.2518 33.4713 16.5916 33.9515 16.5916C34.0106 16.5916 34.0623 16.5842 34.1214 16.5768C34.6606 16.4956 35.03 15.9785 34.9339 15.4392Z" fill="#EE2852"/>
</svg>
