<svg width="58" height="58" viewBox="0 0 58 58" fill="none" xmlns="http://www.w3.org/2000/svg">
<path fill-rule="evenodd" clip-rule="evenodd" d="M22.7538 17.8375C21.2051 17.8375 19.7182 17.5805 18.3307 17.1082C17.7396 16.9069 17.0984 17.2266 16.8986 17.8221C16.6989 18.4176 17.0162 19.0634 17.6073 19.2647C19.2243 19.8151 20.9553 20.1138 22.7538 20.1138C26.12 20.1138 29.2462 19.0692 31.8283 17.2857C34.1007 18.8972 36.8255 19.9051 39.771 20.0827L39.7713 20.0827C40.5316 20.1284 41.1608 19.5166 41.1608 18.763C41.1608 18.1344 40.655 17.6249 40.031 17.6249C39.8255 17.6249 39.6329 17.6801 39.4669 17.7767C36.8629 17.5324 34.4799 16.5272 32.5387 14.9804C32.1328 14.6569 31.5606 14.6527 31.15 14.97C28.8231 16.7686 25.9141 17.8375 22.7538 17.8375Z" fill="#EE2852"/>
<path fill-rule="evenodd" clip-rule="evenodd" d="M9.35547 22.9206C9.35547 26.6662 12.382 29.7026 16.1154 29.7026H18.0333C18.6654 29.7026 19.1778 29.1885 19.1778 28.5544V17.2867C19.1778 16.6526 18.6654 16.1385 18.0333 16.1385H16.1154C12.3819 16.1385 9.35547 19.175 9.35547 22.9206ZM16.1154 27.4061C13.6462 27.4061 11.6445 25.3979 11.6445 22.9206C11.6445 20.4433 13.6462 18.435 16.1154 18.435H16.8887V27.4061H16.1154Z" fill="#EE2852"/>
<path fill-rule="evenodd" clip-rule="evenodd" d="M38.8223 28.5544C38.8223 29.1885 39.3347 29.7026 39.9668 29.7026H41.8847C45.6181 29.7026 48.6446 26.6662 48.6446 22.9206C48.6446 19.175 45.6181 16.1385 41.8847 16.1385H39.9668C39.3347 16.1385 38.8223 16.6526 38.8223 17.2867V28.5544ZM41.1113 27.4061V18.435H41.8847C44.3539 18.435 46.3555 20.4433 46.3555 22.9206C46.3555 25.3979 44.3539 27.4061 41.8847 27.4061H41.1113Z" fill="#EE2852"/>
<path fill-rule="evenodd" clip-rule="evenodd" d="M13.5343 18.4766C14.1633 18.4766 14.6731 17.9707 14.6731 17.3467V16.4748C14.6731 8.6247 21.0875 2.26091 28.9999 2.26091C36.9124 2.26091 43.3267 8.6247 43.3267 16.4748V17.3467C43.3267 17.9707 43.8366 18.4766 44.4655 18.4766C45.0945 18.4766 45.6043 17.9707 45.6043 17.3467V16.4748C45.6043 7.37672 38.1703 0.00123787 28.9999 0.00123787C19.8296 0.00123787 12.3955 7.37672 12.3955 16.4748V17.3467C12.3955 17.9707 12.9054 18.4766 13.5343 18.4766Z" fill="#EE2852"/>
<path fill-rule="evenodd" clip-rule="evenodd" d="M17.9712 18.7104C18.5965 18.7104 19.1035 18.1987 19.1035 17.5674V16.7207C19.1035 11.2132 23.5439 6.73074 28.9998 6.73074C34.4557 6.73074 38.8962 11.2132 38.8962 16.7207V17.5674C38.8962 18.1987 39.4031 18.7104 40.0285 18.7104C40.6539 18.7104 41.1608 18.1987 41.1608 17.5674V16.7207C41.1608 9.95065 35.7064 4.44469 28.9998 4.44469C22.2932 4.44469 16.8389 9.95066 16.8389 16.7207V17.5674C16.8389 18.1987 17.3458 18.7104 17.9712 18.7104Z" fill="#EE2852"/>
<path fill-rule="evenodd" clip-rule="evenodd" d="M31.3379 29.5848C31.3379 30.166 31.8432 30.6372 32.4666 30.6372H38.8622C39.4856 30.6372 39.9909 30.166 39.9909 29.5848C39.9909 29.0036 39.4856 28.5324 38.8622 28.5324H32.4666C31.8432 28.5324 31.3379 29.0036 31.3379 29.5848Z" fill="#EE2852"/>
<path fill-rule="evenodd" clip-rule="evenodd" d="M28.2333 30.7214C27.5962 30.7214 27.0795 30.2127 27.0795 29.585C27.0795 28.9574 27.5962 28.4487 28.2333 28.4487H29.7658C30.4031 28.4487 30.9197 28.9574 30.9197 29.585C30.9197 30.2126 30.4031 30.7214 29.7658 30.7214H28.2333ZM24.79 29.585C24.79 31.4578 26.3316 32.9761 28.2333 32.9761H29.7658C31.6675 32.9761 33.2092 31.4579 33.2092 29.585C33.2092 27.7122 31.6675 26.194 29.7658 26.194H28.2333C26.3316 26.194 24.79 27.7122 24.79 29.585Z" fill="#EE2852"/>
<path fill-rule="evenodd" clip-rule="evenodd" d="M28.9998 35.1793C23.5313 35.1793 19.0984 30.7842 19.0984 25.3625V19.8303C19.0984 19.2117 18.5926 18.7102 17.9686 18.7102C17.3447 18.7102 16.8389 19.2117 16.8389 19.8303V25.3625C16.8389 32.0214 22.2835 37.4194 28.9998 37.4194H28.9999C35.7162 37.4194 41.1608 32.0214 41.1608 25.3625V20.3787C41.1608 19.7601 40.655 19.2586 40.0311 19.2586C39.4071 19.2586 38.9013 19.7601 38.9013 20.3787V25.3625C38.9013 30.7842 34.4683 35.1793 28.9999 35.1793H28.9998Z" fill="#EE2852"/>
<path fill-rule="evenodd" clip-rule="evenodd" d="M24.3217 40.46C24.9675 40.46 25.491 39.9548 25.491 39.3318V35.5077C25.491 34.8846 24.9675 34.3795 24.3217 34.3795C23.6759 34.3795 23.1523 34.8846 23.1523 35.5077V39.3318C23.1523 39.9548 23.6759 40.46 24.3217 40.46Z" fill="#EE2852"/>
<path fill-rule="evenodd" clip-rule="evenodd" d="M0 56.8697C0 57.494 0.506942 58 1.13229 58H23.8913C24.5166 58 25.0235 57.494 25.0235 56.8697C25.0235 56.2455 24.5166 55.7394 23.8913 55.7394H2.30509C2.88512 47.6778 9.62066 41.3175 17.8444 41.3175H21.372C21.9974 41.3175 22.5043 40.8115 22.5043 40.1872C22.5043 39.563 21.9974 39.0569 21.372 39.0569H17.8444C7.98922 39.0569 0 47.0319 0 56.8697Z" fill="#EE2852"/>
<path fill-rule="evenodd" clip-rule="evenodd" d="M32.9756 56.8697C32.9756 57.494 33.4825 58 34.1079 58H56.8668C57.4922 58 57.9991 57.494 57.9991 56.8697C57.9991 47.032 50.0099 39.0569 40.1549 39.0569H36.4397C35.8144 39.0569 35.3074 39.563 35.3074 40.1872C35.3074 40.8115 35.8144 41.3175 36.4397 41.3175H40.1549C48.3785 41.3175 55.114 47.6779 55.694 55.7394H34.1079C33.4825 55.7394 32.9756 56.2455 32.9756 56.8697Z" fill="#EE2852"/>
<path fill-rule="evenodd" clip-rule="evenodd" d="M33.6771 40.4595C34.3229 40.4595 34.8465 39.9544 34.8465 39.3313V35.5072C34.8465 34.8841 34.3229 34.379 33.6771 34.379C33.0313 34.379 32.5078 34.8841 32.5078 35.5072V39.3313C32.5078 39.9544 33.0313 40.4595 33.6771 40.4595Z" fill="#EE2852"/>
<path fill-rule="evenodd" clip-rule="evenodd" d="M34.5178 50.7449C34.855 50.7129 35.1605 50.5308 35.351 50.2484L40.7287 42.2757C40.9181 41.9948 40.9743 41.6437 40.8821 41.3169C40.7898 40.9902 40.5587 40.7216 40.2509 40.5835L34.4641 37.9865C34.0342 37.7936 33.5308 37.8877 33.198 38.2232L28.1621 43.3018C27.7181 43.7495 27.7181 44.4754 28.1621 44.9231L33.6072 50.4142C33.8467 50.6558 34.1805 50.777 34.5178 50.7449ZM30.5736 44.1124L34.2534 40.4016L38.0836 42.1205L34.2436 47.8134L30.5736 44.1124Z" fill="#EE2852"/>
<path fill-rule="evenodd" clip-rule="evenodd" d="M23.481 50.7449C23.8182 50.777 24.1521 50.6558 24.3916 50.4142L29.8367 44.9231C30.2807 44.4754 30.2807 43.7495 29.8367 43.3018L24.8007 38.2232C24.468 37.8877 23.9646 37.7936 23.5347 37.9865L17.7479 40.5835C17.4401 40.7216 17.2089 40.9902 17.1167 41.3169C17.0245 41.6437 17.0806 41.9948 17.2701 42.2757L22.6478 50.2484C22.8383 50.5308 23.1438 50.7129 23.481 50.7449ZM23.7552 47.8134L19.9152 42.1205L23.7454 40.4016L27.4252 44.1124L23.7552 47.8134Z" fill="#EE2852"/>
</svg>
