<svg width="15" height="15" viewBox="0 0 15 15" fill="none" xmlns="http://www.w3.org/2000/svg">
<path d="M10.888 0H4.11202C1.84465 0 0 1.84465 0 4.11205V10.888C0 13.1554 1.84465 15 4.11202 15H10.888C13.1554 15 15 13.1554 15 10.888V4.11205C15 1.84465 13.1554 0 10.888 0ZM14.1142 10.888C14.1142 12.6669 12.6669 14.1142 10.888 14.1142H4.11202C2.33309 14.1142 0.88582 12.6669 0.88582 10.888V4.11205C0.88582 2.33309 2.33309 0.88582 4.11202 0.88582H10.888C12.6669 0.88582 14.1142 2.33309 14.1142 4.11205V10.888Z" fill="#EE2852"/>
<path d="M7.50091 3.38681C5.23233 3.38681 3.38672 5.23243 3.38672 7.501C3.38672 9.76957 5.2323 11.6152 7.50091 11.6152C9.76948 11.6152 11.6151 9.76954 11.6151 7.50097C11.6151 5.2324 9.76948 3.38681 7.50091 3.38681ZM7.50091 10.7294C5.72077 10.7294 4.27251 9.28111 4.27251 7.50097C4.27251 5.72083 5.72077 4.27257 7.50091 4.27257C9.28107 4.27257 10.7293 5.72086 10.7293 7.501C10.7293 9.28114 9.28107 10.7294 7.50091 10.7294Z" fill="#EE2852"/>
<path d="M11.8603 1.88965C11.1711 1.88965 10.6104 2.45042 10.6104 3.13966C10.6104 3.8289 11.1711 4.38964 11.8603 4.38964C12.5496 4.38964 13.1103 3.82887 13.1103 3.13963C13.1103 2.45039 12.5496 1.88965 11.8603 1.88965ZM11.8603 3.50379C11.6596 3.50379 11.4962 3.34043 11.4962 3.13963C11.4962 2.93883 11.6596 2.77547 11.8603 2.77547C12.0611 2.77547 12.2245 2.93886 12.2245 3.13963C12.2245 3.3404 12.0611 3.50379 11.8603 3.50379Z" fill="#EE2852"/>
</svg>
