<svg width="17" height="17" viewBox="0 0 17 17" fill="none" xmlns="http://www.w3.org/2000/svg">
<path d="M5 16.0504H5.05V16.0004V5.66714V5.61714H5H1H0.95V5.66714V16.0004V16.0504H1H5ZM4.28337 15.2838H1.71663V6.38377H4.28337V15.2838Z" fill="#EE2852" stroke="#EE2852" stroke-width="0.1"/>
<path d="M16.384 16.0502H16.334H12.334H12.284V16.0002V10.3336C12.284 9.80899 11.8586 9.38362 11.334 9.38362C10.8092 9.38362 10.384 9.80898 10.384 10.3336V16.0002V16.0502H10.334H6.33398H6.28398V16.0002V5.66699V5.61699H6.33398H10.334H10.384V5.66699V6.24153C10.9801 5.83462 11.6858 5.61653 12.4089 5.61699C12.4089 5.61699 12.409 5.61699 12.409 5.61699M16.384 16.0502L16.334 9.57947C16.334 7.42114 14.5714 5.66699 12.4089 5.66699L12.409 5.61699M16.384 16.0502V16.0002V9.57947C16.384 7.39337 14.5989 5.61701 12.409 5.61699M16.384 16.0502L12.409 5.61699M15.6172 9.57959V15.2836H13.0506V10.3336C13.0506 9.38547 12.282 8.61699 11.334 8.61699C10.3858 8.61699 9.61724 9.38547 9.61724 10.3336V15.2836H7.05061V6.38362H9.61724V7.93359V8.06241L9.70414 7.96733L10.2791 7.3383C10.2791 7.33828 10.2791 7.33826 10.2792 7.33824C10.845 6.72314 11.6027 6.38362 12.4089 6.38362L12.409 6.38362C14.1771 6.38134 15.6128 7.81153 15.6172 9.57959Z" fill="" stroke="#EE2852" stroke-width="0.5"/>
<path d="M3 5.05H3.0001C4.13128 5.04775 5.04762 4.13127 5.05 3.0001V3C5.05 1.8679 4.13223 0.95 3 0.95C1.86777 0.95 0.95 1.8679 0.95 3C0.95 4.13223 1.86777 5.05 3 5.05ZM1.71663 3C1.71663 2.29129 2.29128 1.71675 3 1.71675C3.70872 1.71675 4.28337 2.29129 4.28337 3C4.28337 3.70883 3.70872 4.28337 3 4.28337C2.29128 4.28337 1.71663 3.70883 1.71663 3Z" fill="#EE2852" stroke="#EE2852" stroke-width="0.1"/>
</svg>
