<svg width="21" height="25" viewBox="0 0 21 25" fill="none" xmlns="http://www.w3.org/2000/svg">
<g opacity="0.4">
<path d="M10.0213 24.0784C8.11198 24.0784 6.19325 24.1066 4.28392 24.0596C3.67256 24.0502 3.02358 23.9561 2.44984 23.7398C0.963766 23.1755 0.126673 22.0186 0.0326171 20.4573C-0.0990605 18.2752 0.145484 16.1401 1.18009 14.1556C1.98897 12.6036 3.25872 11.7007 5.03637 11.6631C5.41259 11.6537 5.81703 11.8324 6.17444 12.0017C6.9645 12.3779 7.68873 12.9046 8.49761 13.1962C10.0213 13.7511 11.4886 13.4313 12.8712 12.6507C13.1251 12.5002 13.3885 12.3497 13.6142 12.1616C14.3761 11.5314 15.2132 11.5502 16.0973 11.7948C17.3858 12.1616 18.2888 12.9799 18.8907 14.1461C19.963 16.2342 20.2357 18.4821 20.0006 20.7676C19.8031 22.677 18.1477 24.022 16.0785 24.0596C14.0657 24.0972 12.0435 24.0784 10.0213 24.0784ZM10.0119 22.6676C11.9965 22.6676 13.9904 22.6864 15.975 22.6582C17.6398 22.6394 18.6838 21.633 18.6556 19.987C18.6368 18.8489 18.4957 17.7108 18.2982 16.5916C18.1289 15.5946 17.715 14.6823 17.0002 13.9298C16.1443 13.0269 15.1191 12.8952 14.0845 13.563C13.8776 13.6947 13.6707 13.8452 13.4449 13.958C11.9871 14.7575 10.4352 15.0867 8.77977 14.7669C7.60408 14.5412 6.56007 14.0051 5.6007 13.3091C5.2621 13.0645 4.9235 13.0363 4.53787 13.1209C3.52207 13.3373 2.85428 13.9768 2.39341 14.8704C1.50929 16.6104 1.31177 18.4915 1.43404 20.4008C1.50929 21.6236 2.29935 22.376 3.51267 22.6017C3.80424 22.6582 4.10522 22.6676 4.39679 22.6676C6.28731 22.6676 8.1496 22.6676 10.0119 22.6676Z" fill="#0F1437"/>
<path d="M4.09581 5.78464C4.11462 2.53973 6.71055 -0.0279863 9.94605 0.000230336C13.1439 0.028447 15.7211 2.64319 15.6928 5.84107C15.6646 9.05777 13.0781 11.6067 9.86141 11.5879C6.6353 11.5691 4.077 9.00134 4.09581 5.78464ZM5.51604 5.81286C5.52545 8.2677 7.45359 10.177 9.91784 10.1676C12.3539 10.1582 14.3008 8.20187 14.2914 5.77524C14.282 3.3486 12.3163 1.40166 9.88022 1.41106C7.43477 1.42047 5.49723 3.37682 5.51604 5.81286Z" fill="#0F1437"/>
</g>
</svg>
