<svg width="20" height="26" viewBox="0 0 20 26" fill="none" xmlns="http://www.w3.org/2000/svg">
<g opacity="0.4">
<path d="M0 9.0474C0.0111134 4.3202 4.04528 0.390971 9.25747 0.0273409C14.3474 -0.336289 18.9817 2.96669 19.8597 7.58277C20.2375 9.56254 19.8152 11.4615 19.0373 13.31C18.0371 15.6837 16.5812 17.825 15.0142 19.9058C13.625 21.7543 12.1914 23.5724 10.78 25.4007C10.3244 25.9865 9.70201 26.0471 9.29081 25.4916C7.02367 22.4411 4.71209 19.421 2.54497 16.3099C1.21136 14.421 0.322289 12.3302 0.0444536 10.0575C0.0333402 9.93627 0.0111134 9.82516 0 9.70395C0 9.49183 0 9.26961 0 9.0474ZM9.99095 23.7542C11.0467 22.4007 12.0469 21.128 13.036 19.8452C14.5363 17.8856 15.9811 15.8857 17.0591 13.7039C17.7148 12.3605 18.2371 10.9767 18.3149 9.49183C18.5594 4.59292 13.8584 0.825308 8.5351 1.63338C4.20087 2.28993 1.13357 6.10805 1.73369 10.0676C2.03375 12.0372 2.82281 13.8554 3.95637 15.5119C5.61227 17.9361 7.41264 20.2896 9.14634 22.6633C9.40194 23.0169 9.67978 23.3502 9.99095 23.7542Z" fill="#0F1437"/>
<path d="M4.99023 9.09815C4.99023 6.58304 7.24626 4.54267 10.0135 4.55277C12.7585 4.56287 14.9923 6.60324 14.9923 9.09815C14.9923 11.6133 12.7363 13.6536 9.96904 13.6435C7.22403 13.6334 4.99023 11.5931 4.99023 9.09815ZM13.3253 9.09815C13.3253 7.44161 11.8361 6.0679 10.0135 6.0679C8.17978 6.0578 6.66836 7.41131 6.65725 9.06785C6.64613 10.7547 8.14644 12.1284 10.0024 12.1284C11.825 12.1183 13.3142 10.7648 13.3253 9.09815Z" fill="#0F1437"/>
</g>
</svg>
