<svg width="23" height="23" viewBox="0 0 23 23" fill="none" xmlns="http://www.w3.org/2000/svg">
<path opacity="0.4" d="M17.0525 23C15.9088 22.6568 14.7363 22.3899 13.6311 21.9419C9.63306 20.2832 6.46153 17.5665 3.80897 14.2111C2.15593 12.1234 0.868098 9.83565 0.166517 7.24282C-0.131415 6.13705 -0.0737506 5.15521 0.704716 4.26869C1.64657 3.17246 2.5788 2.05716 3.52065 0.970454C3.72248 0.732142 4.0108 0.560558 4.26068 0.360376C5.07759 -0.287832 5.84644 0.0267393 6.28854 0.60822C7.48026 2.18108 8.55666 3.8302 9.34474 5.6509C9.6715 6.4135 9.51773 7.04264 8.90265 7.57646C8.51822 7.91009 8.11457 8.2342 7.74936 8.5869C7.64364 8.69176 7.57637 8.93007 7.62442 9.05399C8.7681 12.0472 10.844 14.1157 13.8618 15.2501C13.9963 15.2978 14.2558 15.2215 14.3711 15.1071C14.7171 14.7735 14.9958 14.3922 15.3322 14.0395C16.0146 13.315 16.4567 13.1816 17.3793 13.5914C18.177 13.9442 18.9651 14.354 19.7147 14.8021C20.5508 15.2978 21.3581 15.8411 22.1654 16.394C22.9343 16.9183 23.4052 17.7571 22.521 18.7771C21.1563 20.3595 19.5513 21.6655 17.7349 22.695C17.5427 22.7998 17.3216 22.8475 17.1198 22.9142C17.091 22.9428 17.0717 22.9714 17.0525 23ZM5.10642 1.45661C4.21262 2.44799 3.36688 3.31544 2.61725 4.24962C1.28136 5.90828 1.28136 5.99407 2.02138 8.01495C3.22272 11.3132 5.32747 14.0109 7.88391 16.3749C10.0559 18.3863 12.4682 20.0354 15.3322 20.9505C17.0333 21.4939 17.1006 21.4939 18.4941 20.3881C19.5129 19.5778 20.4643 18.6913 21.4927 17.7953C19.9453 16.6323 18.4076 15.7363 16.7834 14.9927C16.6873 14.9451 16.4663 15.069 16.3606 15.1738C15.88 15.6791 15.4091 16.2033 14.9382 16.7276C14.7075 16.985 14.4288 17.0517 14.1116 16.9278C13.3428 16.6323 12.5355 16.394 11.8051 16.0032C8.88343 14.4398 6.91323 12.0758 5.94255 8.911C5.82722 8.52017 5.86566 8.2056 6.18282 7.92916C6.69219 7.49067 7.17272 7.03311 7.6917 6.60415C7.91274 6.4135 7.95119 6.25144 7.80703 5.99407C7.50909 5.46978 7.26883 4.9169 6.95167 4.40214C6.38464 3.4489 5.77917 2.52425 5.10642 1.45661Z" fill="#0F1437"/>
</svg>
