<svg width="15" height="16" viewBox="0 0 15 16" fill="none" xmlns="http://www.w3.org/2000/svg">
<path d="M11.8617 9.30523C11.5542 8.98499 11.1832 8.81378 10.79 8.81378C10.4001 8.81378 10.0259 8.98182 9.70568 9.30206L8.70376 10.3008C8.62132 10.2564 8.53889 10.2152 8.45962 10.174C8.34548 10.1169 8.23768 10.063 8.14573 10.0059C7.20722 9.40986 6.35432 8.63305 5.5363 7.62796C5.13997 7.127 4.87363 6.70531 4.68022 6.27727C4.94022 6.03947 5.18118 5.79216 5.41581 5.55437C5.50459 5.46559 5.59337 5.37364 5.68215 5.28486C6.34798 4.61903 6.34798 3.75661 5.68215 3.09078L4.81656 2.2252C4.71827 2.12691 4.61681 2.02545 4.52169 1.92399C4.33145 1.72741 4.1317 1.52449 3.92561 1.33425C3.61806 1.02987 3.25027 0.868164 2.86345 0.868164C2.47663 0.868164 2.1025 1.02987 1.78543 1.33425C1.78226 1.33742 1.78226 1.33742 1.77909 1.34059L0.701075 2.42812C0.295233 2.83396 0.0637769 3.32858 0.0130467 3.90246C-0.0630486 4.82829 0.209626 5.6907 0.418888 6.25508C0.932531 7.64064 1.69983 8.92475 2.84443 10.3008C4.23316 11.9591 5.90409 13.2685 7.81281 14.1912C8.54206 14.5368 9.51545 14.9458 10.603 15.0155C10.6696 15.0187 10.7393 15.0219 10.8027 15.0219C11.5351 15.0219 12.1502 14.7587 12.6322 14.2356C12.6354 14.2292 12.6417 14.2261 12.6449 14.2197C12.8097 14.02 13 13.8392 13.1997 13.6458C13.3361 13.5158 13.4756 13.3795 13.6119 13.2368C13.9258 12.9102 14.0907 12.5298 14.0907 12.1398C14.0907 11.7466 13.9226 11.3693 13.6024 11.0522L11.8617 9.30523ZM12.9968 12.6439C12.9936 12.6439 12.9936 12.6471 12.9968 12.6439C12.8731 12.7771 12.7463 12.8976 12.61 13.0307C12.4039 13.2273 12.1946 13.4334 11.9981 13.6649C11.6778 14.0073 11.3005 14.169 10.8059 14.169C10.7583 14.169 10.7076 14.169 10.66 14.1658C9.71837 14.1056 8.84327 13.7378 8.18695 13.4239C6.39237 12.5551 4.81656 11.3218 3.50709 9.75863C2.4259 8.4555 1.703 7.25066 1.22423 5.95704C0.929361 5.16755 0.821559 4.55244 0.869119 3.97222C0.900825 3.60125 1.0435 3.2937 1.30667 3.03054L2.38785 1.94935C2.54321 1.8035 2.70809 1.72424 2.86979 1.72424C3.06954 1.72424 3.23124 1.84472 3.3327 1.94618C3.33587 1.94935 3.33904 1.95252 3.34222 1.95569C3.53562 2.13642 3.71952 2.32349 3.91293 2.52324C4.01122 2.6247 4.11268 2.72616 4.21414 2.83079L5.07972 3.69637C5.41581 4.03246 5.41581 4.34318 5.07972 4.67927C4.98778 4.77122 4.899 4.86317 4.80705 4.95194C4.54072 5.22462 4.28707 5.47827 4.01122 5.72558C4.00488 5.73192 3.99854 5.73509 3.99537 5.74143C3.72269 6.01411 3.77342 6.28044 3.83049 6.46117C3.83366 6.47068 3.83683 6.48019 3.84001 6.4897C4.06512 7.03505 4.38218 7.5487 4.86412 8.16063L4.86729 8.1638C5.74239 9.24182 6.66504 10.082 7.68282 10.7257C7.81281 10.8081 7.94598 10.8747 8.07281 10.9381C8.18695 10.9952 8.29475 11.0491 8.3867 11.1062C8.39938 11.1125 8.41206 11.122 8.42475 11.1283C8.53255 11.1822 8.63401 11.2076 8.73864 11.2076C9.0018 11.2076 9.16667 11.0427 9.22058 10.9888L10.3049 9.90448C10.4127 9.79668 10.5839 9.66668 10.7837 9.66668C10.9803 9.66668 11.142 9.79034 11.2403 9.89814C11.2434 9.90131 11.2434 9.90131 11.2466 9.90448L12.9936 11.6515C13.3202 11.9749 13.3202 12.3078 12.9968 12.6439Z" fill="#EE2852"/>
<path d="M8.10819 3.57275C8.93889 3.71226 9.69351 4.10542 10.2959 4.70784C10.8983 5.31026 11.2883 6.06487 11.431 6.89558C11.4659 7.10484 11.6466 7.25069 11.8527 7.25069C11.8781 7.25069 11.9003 7.24752 11.9256 7.24435C12.1603 7.2063 12.3156 6.98436 12.2776 6.74973C12.1064 5.74464 11.6308 4.82833 10.9047 4.10225C10.1786 3.37617 9.2623 2.90058 8.25721 2.72936C8.02258 2.69132 7.80381 2.84668 7.76259 3.07813C7.72137 3.30959 7.87356 3.53471 8.10819 3.57275Z" fill="#EE2852"/>
<path d="M14.9934 6.62681C14.7113 4.97174 13.9313 3.46569 12.7328 2.26719C11.5343 1.06869 10.0282 0.288712 8.37315 0.00652564C8.1417 -0.0346926 7.92292 0.123839 7.8817 0.355296C7.84366 0.589923 7.99902 0.808697 8.23364 0.849915C9.71116 1.1004 11.0587 1.80111 12.1304 2.86961C13.202 3.94129 13.8996 5.28881 14.1501 6.76632C14.1849 6.97559 14.3657 7.12143 14.5717 7.12143C14.5971 7.12143 14.6193 7.11826 14.6447 7.11509C14.8761 7.08022 15.0347 6.85827 14.9934 6.62681Z" fill="#EE2852"/>
</svg>
