<svg width="32" height="40" viewBox="0 0 32 40" fill="none" xmlns="http://www.w3.org/2000/svg">
<path d="M31.125 20.0201C31.062 21.7057 30.039 22.8095 28.6697 23.7045C24.8137 26.1956 20.9735 28.7015 17.1175 31.1926C13.7179 33.4003 10.334 35.6079 6.9187 37.8007C6.35211 38.1587 5.76977 38.5167 5.15596 38.7702C2.87383 39.6951 1.11108 38.6509 0.906478 36.309C0.875 35.9659 0.875 35.6079 0.875 35.2648C0.875 25.0768 0.875 14.9037 0.890739 4.73059C0.890739 3.99967 0.985172 3.23893 1.22125 2.53785C1.6462 1.28485 2.84235 0.64344 4.19589 0.986522C5.06152 1.21027 5.92716 1.58319 6.68262 2.06052C14.0484 6.80399 21.3984 11.5922 28.7642 16.3655C30.1177 17.2456 31.0778 18.3643 31.125 20.0201Z" fill="#EE2852"/>
</svg>
