<svg width="17" height="16" viewBox="0 0 17 16" fill="none" xmlns="http://www.w3.org/2000/svg">
<path d="M8.75341 0C8.41142 0 8.06942 0.1844 7.89242 0.556326L5.93345 4.69439L1.55052 5.35698C0.764529 5.47575 0.449534 6.48526 1.01953 7.06347L4.19048 10.2827L3.44049 14.8302C3.30549 15.6459 4.13048 16.2679 4.83247 15.8834L8.75341 13.7394V0Z" fill="#FFC403"/>
<path d="M8.70362 0C9.04561 0 9.38761 0.1844 9.56461 0.556326L11.5236 4.69439L15.9065 5.35698C16.6925 5.47575 17.0075 6.48526 16.4375 7.06347L13.2666 10.2827L14.0165 14.8302C14.1515 15.6459 13.3266 16.2679 12.6246 15.8834L8.70362 13.7394V0Z" fill="#FFC403"/>
</svg>
