<svg width="34" height="34" viewBox="0 0 34 34" fill="none" xmlns="http://www.w3.org/2000/svg">
<path d="M17 0C7.63944 0 0 7.63997 0 17C0 26.3606 7.63997 34 17 34C26.3606 34 34 26.36 34 17C34 7.63944 26.36 0 17 0ZM17 32.0078C8.72465 32.0078 1.99219 25.2753 1.99219 17C1.99219 8.72465 8.72465 1.99219 17 1.99219C25.2753 1.99219 32.0078 8.72465 32.0078 17C32.0078 25.2753 25.2753 32.0078 17 32.0078Z" fill="#EE2852"/>
<path d="M8.54785 26.4482C9.09798 26.4482 9.54395 26.0023 9.54395 25.4521C9.54395 24.902 9.09798 24.4561 8.54785 24.4561C7.99772 24.4561 7.55176 24.902 7.55176 25.4521C7.55176 26.0023 7.99772 26.4482 8.54785 26.4482Z" fill="#EE2852"/>
<path d="M25.4521 9.54395C26.0023 9.54395 26.4482 9.09798 26.4482 8.54785C26.4482 7.99772 26.0023 7.55176 25.4521 7.55176C24.902 7.55176 24.4561 7.99772 24.4561 8.54785C24.4561 9.09798 24.902 9.54395 25.4521 9.54395Z" fill="#EE2852"/>
<path d="M7.84351 7.84351C7.45451 8.23252 7.45451 8.86318 7.84351 9.25219C8.23252 9.6412 8.86318 9.6412 9.25219 9.25219C9.6412 8.86318 9.6412 8.23252 9.25219 7.84351C8.86325 7.45451 8.23252 7.45451 7.84351 7.84351Z" fill="#EE2852"/>
<path d="M24.7478 24.7478C24.3588 25.1368 24.3588 25.7675 24.7478 26.1565C25.1368 26.5455 25.7675 26.5455 26.1565 26.1565C26.5455 25.7675 26.5455 25.1368 26.1565 24.7478C25.7675 24.3588 25.1368 24.3588 24.7478 24.7478Z" fill="#EE2852"/>
<path d="M17 8.03516C17.5501 8.03516 17.9961 7.58917 17.9961 7.03906V5.04688C17.9961 4.49677 17.5501 4.05078 17 4.05078C16.4499 4.05078 16.0039 4.49677 16.0039 5.04688V7.03906C16.0039 7.58917 16.4499 8.03516 17 8.03516Z" fill="#EE2852"/>
<path d="M17 25.9648C16.4499 25.9648 16.0039 26.4108 16.0039 26.9609V28.9531C16.0039 29.5032 16.4499 29.9492 17 29.9492C17.5501 29.9492 17.9961 29.5032 17.9961 28.9531V26.9609C17.9961 26.4108 17.5501 25.9648 17 25.9648Z" fill="#EE2852"/>
<path d="M8.03516 17C8.03516 16.4499 7.58917 16.0039 7.03906 16.0039H5.04688C4.49677 16.0039 4.05078 16.4499 4.05078 17C4.05078 17.5501 4.49677 17.9961 5.04688 17.9961H7.03906C7.58917 17.9961 8.03516 17.5501 8.03516 17Z" fill="#EE2852"/>
<path d="M25.9648 17C25.9648 17.5501 26.4108 17.9961 26.9609 17.9961H28.9531C29.5032 17.9961 29.9492 17.5501 29.9492 17C29.9492 16.4499 29.5032 16.0039 28.9531 16.0039H26.9609C26.4108 16.0039 25.9648 16.4499 25.9648 17Z" fill="#EE2852"/>
<path d="M17.9961 16.5879V11.0239C17.9961 10.4738 17.5501 10.0278 17 10.0278C16.4499 10.0278 16.0039 10.4738 16.0039 11.0239V17.0005C16.0039 17.2647 16.1089 17.518 16.2957 17.7049L22.2723 23.6814C22.6612 24.0704 23.2919 24.0704 23.6809 23.6814C24.0699 23.2924 24.0699 22.6618 23.6809 22.2727L17.9961 16.5879Z" fill="#EE2852"/>
</svg>
