<svg width="17" height="15" viewBox="0 0 17 15" fill="none" xmlns="http://www.w3.org/2000/svg">
<path d="M16.4132 2.45483C16.3157 2.29628 16.1374 2.20641 15.9517 2.22251L15.1296 2.29413L15.9154 0.710145C16.009 0.521489 15.972 0.294194 15.8235 0.144886C15.6749 -0.00442198 15.4479 -0.0424816 15.2588 0.0501236L13.1791 1.06862C11.8943 0.390309 10.289 0.591652 9.18446 1.59785C8.26259 2.43761 7.77803 3.72902 7.86838 5.01687C5.45894 4.77537 3.41943 3.39624 2.21344 1.16786C2.13342 1.02003 1.98341 0.923337 1.81574 0.911455C1.64776 0.899767 1.48593 0.974212 1.38592 1.10935C0.637927 2.11983 0.585442 3.5053 1.17182 4.64513C1.01018 4.6043 0.838174 4.54904 0.647425 4.48532C0.484014 4.43068 0.303859 4.46568 0.172711 4.57748C0.0415631 4.68927 -0.0214831 4.86157 0.00656248 5.03161C0.238591 6.43834 1.0589 7.51946 2.35473 8.15939C2.186 8.21815 2.01384 8.26587 1.83877 8.30236C1.66483 8.33861 1.52399 8.46587 1.47038 8.63527C1.41676 8.80463 1.45869 8.98978 1.58008 9.11951C2.51325 10.117 3.86124 10.6079 4.81872 10.8434C3.73006 11.696 2.55488 11.8386 0.847222 11.78C0.64955 11.774 0.467431 11.8854 0.384325 12.0646C0.301251 12.2438 0.333482 12.4553 0.46624 12.6017C1.1781 13.3863 3.77163 14.2711 6.49801 14.3374C6.60584 14.3401 6.71584 14.3415 6.82815 14.3415C8.74243 14.3414 11.2724 13.9311 13.0883 12.1151C14.4628 10.7407 15.3225 9.15838 15.6435 7.41234C15.9028 6.0021 15.7389 4.87281 15.6602 4.33006C15.6544 4.29016 15.6482 4.24782 15.6432 4.21079L16.4121 2.97144C16.5102 2.81334 16.5106 2.61338 16.4132 2.45483ZM14.6871 4.47122C14.833 5.47661 15.2769 8.53606 12.3931 11.4199C10.7168 13.0961 8.27515 13.3971 6.5219 13.3545C5.02589 13.3181 3.68775 13.032 2.71791 12.7057C3.11167 12.6574 3.46258 12.5829 3.79381 12.48C4.70695 12.1961 5.47838 11.6854 6.22148 10.8727C6.34535 10.7373 6.38341 10.5441 6.32027 10.3718C6.25712 10.1995 6.10321 10.0767 5.92116 10.0534C5.45237 9.99327 4.04378 9.75616 2.93457 8.99104C3.25422 8.86031 3.56249 8.6967 3.85686 8.50145C4.01834 8.39429 4.10186 8.20231 4.07005 8.01115C4.03827 7.82001 3.8972 7.66529 3.70974 7.61616C2.80188 7.37814 1.7062 6.84556 1.20096 5.65667C1.5236 5.71321 1.87441 5.72689 2.24857 5.64302C2.42199 5.60418 2.56097 5.47474 2.61197 5.30447C2.66301 5.1342 2.61818 4.94964 2.49473 4.8218C1.86607 4.17067 1.63099 3.23232 1.83268 2.42936C2.49322 3.39473 3.33005 4.20718 4.28881 4.80786C5.51532 5.5763 6.94683 6.00098 8.42868 6.03585C8.57947 6.03903 8.72411 5.97322 8.82013 5.8564C8.91608 5.73961 8.95298 5.58515 8.92017 5.43758C8.66521 4.29145 9.02884 3.06961 9.84657 2.32475C10.6947 1.55212 11.9482 1.43492 12.8948 2.03991C13.0393 2.13229 13.2216 2.14263 13.3757 2.06715L14.3913 1.56974L13.8598 2.64136C13.7808 2.80059 13.7939 2.99005 13.8941 3.13685C13.9942 3.28364 14.1655 3.36514 14.3429 3.34959L15.059 3.28722L14.7291 3.81899C14.6184 3.99747 14.6413 4.15583 14.6871 4.47122Z" fill="#EE2852"/>
</svg>
