<svg width="212" height="202" viewBox="0 0 212 202" fill="none" xmlns="http://www.w3.org/2000/svg">
<path d="M162.293 3.68891C175.707 12.6754 173.495 32.3573 162.492 42.2125C150.219 53.205 132.767 53.5075 117.545 49.8822C110.412 48.1882 101.585 46.2271 96.0194 41.1433C89.7178 35.365 92.5738 27.3986 99.8944 24.3744C114.964 18.1544 128.735 38.7434 134.421 49.6961C141.695 63.7054 143.642 80.8498 135.084 94.7653C126.461 108.793 109.696 112.156 94.6722 107.605C87.797 105.529 76.4714 100.935 76.0373 92.4464C75.8614 88.9925 77.7425 85.3196 81.5938 85.2459C85.0672 85.1786 88.2451 88.2929 90.3886 90.6977C94.9178 95.7745 98.0438 102.413 101.117 108.43C104.512 115.082 107.498 121.977 109.381 129.214C113.626 145.553 109.96 162.57 94.9961 172.053C79.0096 182.181 59.2398 179.5 42.8024 171.94C42.8073 173.552 42.8098 175.154 42.8235 176.764C50.1431 172.886 57.4627 169.008 64.7912 165.128C63.8323 163.497 62.8734 161.866 61.9145 160.234C53.8356 165.492 45.3958 170.04 36.5525 173.861C34.904 174.578 34.7177 177.247 35.99 178.348C42.9223 184.356 49.8612 190.352 56.7935 196.36C59.5615 198.759 63.6105 194.714 60.8177 192.293C53.8788 186.297 46.9376 180.291 40.0076 174.292C39.8193 175.785 39.6334 177.286 39.4451 178.779C48.286 174.949 56.7371 170.407 64.7912 165.128C67.8319 163.127 65.151 158.504 61.9145 160.234C54.6109 164.136 47.3008 168.05 39.9971 171.952C38.2544 172.883 38.1051 175.903 40.0183 176.775C58.2175 185.068 80.0561 187.964 97.7491 176.733C113.806 166.549 119.164 148.481 115.235 130.454C113.147 120.89 109.039 111.792 104.463 103.179C100.499 95.7117 96.3508 87.1362 89.0432 82.3485C82.9787 78.3758 74.7708 79.3986 71.7439 86.5854C68.3556 94.6185 73.5001 102.31 80.0651 106.699C95.3469 116.921 118.143 118.574 132.522 105.955C147.307 92.9703 148.905 71.0334 142.026 53.6452C136.25 39.0638 121.319 15.4554 102.562 18.1474C95.6005 19.1492 88.5787 24.2091 87.2284 31.421C85.6259 40.0288 92.6903 46.3522 99.7788 49.6142C118.813 58.3661 145.241 61.7117 162.781 47.9986C170.234 42.1779 175.342 33.5511 175.24 23.9295C175.141 14.9902 171 6.68799 163.23 2.05257C162.182 1.4322 161.288 3.0189 162.293 3.68891Z" fill="#EE2852"/>
</svg>
