<svg width="149" height="146" viewBox="0 0 149 146" fill="none" xmlns="http://www.w3.org/2000/svg">
<path d="M55.5723 3.50539C45.8236 6.82794 43.9371 19.3204 49.0894 27.2094C54.8366 36.0088 65.54 39.0765 75.5177 39.3559C80.1926 39.4898 85.9554 39.7388 90.2239 37.5252C95.0607 35.0052 94.6162 29.6251 90.6048 26.5531C82.3464 20.2325 70.4619 30.6451 65.15 36.455C58.3552 43.8861 54.3252 54.1284 57.3008 64.1156C60.2978 74.1825 70.0725 79.0227 80.0811 78.6989C84.6601 78.5547 92.397 77.5943 94.0659 72.4353C94.7446 70.3362 94.1919 67.7625 91.8311 67.0813C89.702 66.4663 87.2297 67.8606 85.5119 68.9885C81.883 71.3688 78.8608 74.9432 75.9737 78.1433C72.7834 81.6814 69.8053 85.4365 67.4506 89.5853C62.1373 98.9518 61.5869 110.042 69.2411 118.356C77.4192 127.236 90.0435 128.848 101.42 126.903C101.151 127.896 100.884 128.883 100.61 129.872C96.7404 126.274 92.8706 122.676 88.9957 119.076C89.8558 118.229 90.7159 117.382 91.5761 116.536C95.6859 121.109 100.135 125.305 104.953 129.119C105.851 129.833 105.525 131.508 104.559 131.977C99.2959 134.534 94.0304 137.083 88.7671 139.64C86.6655 140.661 84.8385 137.5 86.959 136.47C92.2245 133.921 97.4929 131.366 102.753 128.814C102.623 129.765 102.49 130.721 102.359 131.672C97.5441 127.852 93.0867 123.658 88.9957 119.076C87.4524 117.341 89.8676 114.935 91.5761 116.536C95.4321 120.146 99.2902 123.764 103.146 127.374C104.066 128.236 103.66 130.121 102.337 130.342C89.7541 132.447 75.8198 130.626 66.7722 120.785C58.5602 111.859 58.2417 99.8415 63.6388 89.3827C66.5045 83.8346 70.5378 78.9065 74.7789 74.3551C78.4547 70.4087 82.4263 65.8096 87.7193 64.0661C92.112 62.6195 97.0005 64.6049 97.679 69.5328C98.4405 75.042 94.0008 78.932 89.231 80.5524C78.1273 84.3279 63.8084 81.5827 57.0318 71.4329C50.0658 60.9915 52.7027 47.2109 59.8123 37.6327C65.7787 29.6018 78.8765 17.5204 89.9894 22.2758C94.1132 24.0424 97.6044 28.3194 97.2457 32.9861C96.812 38.5545 91.4151 41.2844 86.5089 42.124C73.336 44.3741 56.4998 42.0723 47.9563 30.7269C44.3247 25.9098 42.6017 19.751 44.253 13.8393C45.79 8.34762 49.7123 3.91581 55.2649 2.3424C56.0134 2.13327 56.3021 3.25848 55.5723 3.50539Z" fill="white"/>
</svg>
