<svg width="39" height="36" viewBox="0 0 39 36" fill="none" xmlns="http://www.w3.org/2000/svg">
<path d="M32.5161 26.8103C33.5362 27.0884 34.4731 27.4542 35.3028 28.049C37.7193 29.7814 38.4227 32.2143 38.1595 35.0397C38.1193 35.4635 37.8665 35.7178 37.4427 35.7639C37.1721 35.7922 36.8985 35.7847 36.6263 35.7847C24.9306 35.7862 13.2348 35.7862 1.53911 35.7847C0.0832765 35.7847 9.67275e-07 35.6985 9.67275e-07 34.2114C-0.00148609 30.3287 1.71161 28.0267 5.44265 26.8906C5.50659 26.8713 5.56012 26.8177 5.62704 26.7746C2.89531 25.1686 1.97333 23.4659 2.58005 21.1758C3.09904 19.2189 4.87161 17.8463 6.89551 17.8344C9.00416 17.8225 10.7767 19.1281 11.3374 21.1074C11.9887 23.4079 11.0771 25.1255 8.2636 26.8073C9.56032 27.1568 10.7485 27.6193 11.7195 28.507C11.9114 28.6825 12.0705 28.6171 12.2222 28.4357C13.6393 26.7315 15.4863 25.7634 17.7064 25.3322C14.075 23.6711 12.5344 21.2115 13.1813 18.1987C13.7776 15.4194 16.1257 13.4149 18.8336 13.3747C21.8568 13.3301 24.2778 15.1592 24.9469 17.9935C25.6845 21.1208 24.2614 23.4942 20.4902 25.3396C22.7045 25.7604 24.5454 26.7404 25.9626 28.4461C26.1574 28.6795 26.3254 28.6305 26.5247 28.455C27.4764 27.6163 28.6066 27.1375 29.9688 26.8207C27.2207 25.5032 25.9834 23.5298 27.0318 20.6122C27.7069 18.7311 29.6059 17.6887 31.7398 17.8463C33.5154 17.9772 35.1764 19.4389 35.6196 21.2606C36.1668 23.512 35.3147 25.0571 32.5161 26.8103ZM19.1013 34.1891C21.3036 34.1891 23.5045 34.1757 25.7068 34.1995C26.2451 34.2055 26.434 34.0984 26.3805 33.4976C26.0236 29.5212 22.3476 26.501 18.3786 26.9635C14.7799 27.3828 12.0913 30.0833 11.7983 33.5229C11.7522 34.0701 11.9054 34.204 12.4229 34.198C14.649 34.1772 16.8752 34.1891 19.1013 34.1891ZM23.4807 19.3765C23.4852 17.0329 21.5029 15.0298 19.1296 14.9792C16.7845 14.9302 14.7011 16.9927 14.6966 19.3676C14.6922 21.7112 16.6744 23.7142 19.0478 23.7648C21.3929 23.8154 23.4762 21.7528 23.4807 19.3765ZM5.85308 34.1876C7.068 34.1876 8.28145 34.1772 9.49638 34.1936C9.93357 34.1995 10.1195 34.0449 10.1269 33.5928C10.1418 32.6663 10.3455 31.7578 10.7425 30.9324C11.0608 30.2722 10.8912 29.8796 10.3455 29.5063C8.54763 28.2795 6.64122 28.0044 4.65004 28.9323C2.7243 29.8305 1.76663 31.4187 1.60305 33.5184C1.56588 33.9854 1.7012 34.204 2.20977 34.195C3.4247 34.1727 4.63963 34.1876 5.85308 34.1876ZM32.2499 34.1876C33.4886 34.1876 34.7288 34.1772 35.9676 34.1936C36.4033 34.1995 36.61 34.0597 36.5787 33.5928C36.43 31.3994 35.4278 29.7532 33.392 28.8729C31.3235 27.9776 29.3784 28.3182 27.6043 29.6967C27.237 29.9822 27.1567 30.2781 27.3575 30.7213C27.7575 31.6061 28.0207 32.5414 28.0445 33.5169C28.0564 34.0374 28.2512 34.2069 28.7568 34.195C29.9197 34.1713 31.084 34.1891 32.2499 34.1876ZM9.82948 22.3298C9.82353 20.7297 8.52532 19.4538 6.93268 19.4821C5.34896 19.5103 4.1147 20.7535 4.10875 22.3283C4.1028 23.9373 5.36829 25.2162 6.96837 25.2162C8.56696 25.2162 9.83543 23.9373 9.82948 22.3298ZM28.3479 22.3774C28.3583 23.9745 29.6654 25.2504 31.2565 25.2132C32.8432 25.176 34.0656 23.9328 34.0686 22.3551C34.0716 20.7505 32.7942 19.4717 31.1971 19.4806C29.594 19.488 28.3374 20.7654 28.3479 22.3774Z" fill="white"/>
<path d="M15.0489 10.4139C15.1679 9.72687 15.275 8.99226 15.4296 8.26657C15.5486 7.70744 15.4505 7.26578 15.0028 6.87171C14.4467 6.38098 13.9396 5.83523 13.4102 5.31476C13.1202 5.03073 12.9923 4.69763 13.1217 4.30356C13.2466 3.92436 13.5738 3.79498 13.9277 3.73996C14.6608 3.62546 15.3925 3.48567 16.13 3.43214C16.7011 3.3905 17.0267 3.13621 17.2498 2.62764C17.5487 1.94954 17.8982 1.29226 18.2283 0.62754C18.4008 0.278081 18.6283 0 19.067 0C19.5012 0 19.7377 0.266184 19.9102 0.620105C20.2551 1.33241 20.6106 2.04025 20.9392 2.76147C21.1236 3.16595 21.4165 3.35927 21.8508 3.41132C22.5869 3.49906 23.32 3.61802 24.0531 3.7236C24.4888 3.78606 24.8888 3.91395 25.0331 4.38832C25.1669 4.83444 24.9037 5.14969 24.6152 5.43075C24.0843 5.94973 23.552 6.46723 23.0018 6.96688C22.682 7.25686 22.5437 7.54535 22.6523 8.00634C22.8382 8.79894 22.9527 9.60939 23.0687 10.4169C23.1936 11.2764 22.5779 11.7404 21.7838 11.3701C21.0671 11.0355 20.3652 10.6652 19.6782 10.2726C19.2692 10.0392 18.9108 10.0168 18.4974 10.2503C17.7851 10.6503 17.0684 11.0444 16.3278 11.3864C15.5694 11.7344 14.991 11.2942 15.0489 10.4139ZM19.061 2.78081C18.5688 4.48498 17.5175 5.26568 15.7404 5.1036C15.901 5.34599 15.9352 5.44562 16.0051 5.49915C17.0074 6.26796 17.5561 7.16318 17.0832 8.49558C16.887 9.04579 17.2795 9.07256 17.6543 8.82125C18.5227 8.23832 19.3808 8.00783 20.3072 8.72013C20.4961 8.86586 20.7726 9.13353 21.0284 8.92386C21.2426 8.74838 21.0626 8.44651 20.9912 8.22494C20.6849 7.25835 20.9124 6.494 21.7377 5.88281C21.9593 5.71924 22.221 5.54228 22.3207 5.10806C20.6448 5.25081 19.5547 4.52662 19.061 2.78081Z" fill="white"/>
<path d="M3.31487 14.0885C4.01528 12.7739 3.35651 11.7419 2.18173 10.7798C1.57947 10.2861 1.87688 9.42508 2.67246 9.38344C4.17142 9.30463 5.10827 8.69345 5.6332 7.24207C5.93061 6.41973 6.87787 6.45245 7.18718 7.28669C7.67939 8.62058 8.47943 9.35816 9.94568 9.32099C10.3487 9.31058 10.7279 9.49646 10.8691 9.94258C11.0134 10.3946 10.7383 10.6935 10.4617 10.985C10.3769 11.0742 10.2966 11.1754 10.197 11.2438C9.28245 11.8683 9.00437 12.6847 9.39398 13.7361C9.47725 13.9606 9.47725 14.2253 9.46684 14.4707C9.4371 15.1651 8.85715 15.6068 8.3114 15.2216C6.98345 14.2833 5.78488 14.3413 4.45693 15.2246C3.86657 15.6142 3.25241 15.0521 3.31487 14.0885ZM7.5753 12.9554C7.35819 12.1524 7.40131 11.5233 7.97978 11.0281C8.17459 10.8601 8.00952 10.6876 7.81472 10.6772C7.2303 10.6445 6.85705 10.353 6.62655 9.83105C6.50164 9.54702 6.33509 9.49349 6.18192 9.81618C5.94251 10.3203 5.59007 10.6415 4.99525 10.6698C4.69337 10.6831 4.57887 10.8765 4.84357 11.098C5.29117 11.4743 5.4027 11.9382 5.30902 12.4884C5.27779 12.6713 5.35066 12.9152 5.57074 12.7739C6.22802 12.3531 6.83326 12.5806 7.5753 12.9554Z" fill="white"/>
<path d="M28.5741 14.3475C28.6381 13.9698 28.6767 13.5207 28.7927 13.0939C28.9563 12.4947 28.8135 12.0396 28.3302 11.6515C28.0224 11.4046 27.7339 11.1266 27.4737 10.8291C26.9383 10.218 27.1302 9.43428 27.9124 9.39264C29.4381 9.31085 30.3928 8.68331 30.9296 7.2141C31.2151 6.43339 32.1609 6.46165 32.4464 7.25127C32.9401 8.62235 33.7803 9.26773 35.254 9.35249C36.2979 9.41198 36.4853 10.1823 35.7685 10.957C35.718 11.0121 35.6704 11.0715 35.6094 11.1132C34.5982 11.8195 34.2666 12.7177 34.6963 13.9193C34.8495 14.346 34.8629 14.871 34.3856 15.1981C33.9305 15.5104 33.5364 15.2323 33.1394 15.0346C32.9847 14.9572 32.8197 14.8888 32.6844 14.7847C32.0286 14.2806 31.3862 14.2836 30.711 14.7594C30.4315 14.9572 30.1058 15.103 29.7846 15.2294C29.1258 15.4911 28.583 15.1134 28.5741 14.3475ZM32.8033 12.9274C32.6888 12.166 32.6635 11.5191 33.2613 11.0269C33.4591 10.8648 33.2896 10.6879 33.0948 10.6775C32.5104 10.6462 32.1371 10.3518 31.9066 9.83133C31.7802 9.54432 31.6137 9.49971 31.4635 9.81794C31.2241 10.3235 30.8701 10.6418 30.2768 10.67C29.9734 10.6849 29.8649 10.8797 30.1266 11.0983C30.5757 11.4745 30.6843 11.9385 30.5906 12.4887C30.5593 12.6716 30.6337 12.914 30.8538 12.7727C31.5096 12.3534 32.1148 12.5854 32.8033 12.9274Z" fill="white"/>
<path d="M21.8447 29.1046C22.1912 29.1016 22.4053 29.2131 22.6135 29.3574C23.4031 29.9061 23.9935 30.6214 24.4307 31.472C24.679 31.9538 24.6805 32.3984 24.1675 32.6869C23.6901 32.9546 23.2886 32.7523 23.0373 32.3181C22.6462 31.643 22.1376 31.0868 21.5264 30.6065C21.2157 30.3626 21.0432 30.031 21.1919 29.625C21.3153 29.2934 21.5725 29.1194 21.8447 29.1046Z" fill="white"/>
</svg>
