<svg width="37" height="37" viewBox="0 0 37 37" fill="none" xmlns="http://www.w3.org/2000/svg">
<path d="M18.3441 0.000357568C23.6361 0.000357568 28.9281 -0.0010727 34.2186 0.00178784C35.8949 0.00321811 36.7159 0.824193 36.7173 2.50047C36.7202 6.88711 36.7188 11.2723 36.7173 15.659C36.7173 15.8735 36.7288 16.0938 36.6844 16.2997C36.5986 16.6959 36.3283 16.9333 35.9221 16.9162C35.523 16.899 35.2456 16.663 35.207 16.2497C35.1712 15.8706 35.1855 15.4873 35.1855 15.1069C35.1841 12.7469 35.1698 10.387 35.1955 8.02703C35.2027 7.44348 35.0296 7.24468 34.4275 7.24468C23.7247 7.26041 13.022 7.26041 2.31932 7.24325C1.67284 7.24182 1.52123 7.46065 1.52266 8.06994C1.53983 15.4587 1.53267 22.8489 1.53554 30.2377C1.53554 31.2432 1.75294 31.4634 2.74554 31.4649C7.01204 31.4677 11.2785 31.4677 15.5465 31.4649C16.5462 31.4634 16.6721 31.2332 16.3031 30.3092C16.0742 29.7342 15.8368 29.3137 15.0902 29.401C14.5825 29.4596 14.3136 29.0935 14.3107 28.5857C14.3036 27.5845 14.3007 26.5834 14.3107 25.5822C14.3164 24.9829 14.6754 24.6854 15.2347 24.7569C16.1157 24.8699 16.0928 24.1276 16.386 23.6627C16.6792 23.1979 16.4261 22.9233 16.1214 22.6229C15.668 22.1767 15.658 21.7033 16.1086 21.2456C16.7608 20.5834 17.4201 19.9269 18.0795 19.2718C18.5629 18.7912 19.0506 18.817 19.5097 19.2976C19.7929 19.5936 20.0618 19.8196 20.4909 19.5421C20.9472 19.2461 21.7109 19.2947 21.6094 18.4079C21.535 17.76 21.8969 17.4439 22.5519 17.4482C23.4573 17.4554 24.3641 17.4611 25.2694 17.4454C25.9488 17.4339 26.3436 17.73 26.2678 18.4237C26.1691 19.319 26.9514 19.2461 27.402 19.5464C27.8353 19.8353 28.0999 19.5707 28.3774 19.2847C28.848 18.8027 29.3314 18.807 29.8091 19.2818C30.4513 19.9212 31.0906 20.5634 31.7314 21.2027C32.2062 21.6761 32.2234 22.1581 31.7443 22.6358C31.4668 22.9133 31.1865 23.1679 31.4682 23.6113C31.7729 24.0904 31.7357 24.8728 32.6596 24.7583C33.2732 24.6811 33.575 25.053 33.5736 25.6694C33.5707 26.5991 33.5664 27.5288 33.575 28.4584C33.5807 29.1092 33.2832 29.421 32.6239 29.4282C32.0661 29.4339 31.2308 30.458 31.3481 30.9929C31.4167 31.3061 31.6742 31.4549 31.9917 31.4577C32.7784 31.4634 33.565 31.482 34.3517 31.452C35.0368 31.4263 35.1912 30.9557 35.1898 30.3607C35.1826 28.0251 35.1869 25.6894 35.1869 23.3524C35.1869 23.1378 35.1912 22.9233 35.1884 22.7088C35.1841 22.1753 35.4158 21.7977 35.9707 21.8091C36.5285 21.8206 36.7245 22.2182 36.7216 22.7431C36.7159 23.9831 36.7216 25.2217 36.7216 26.4618C36.7216 27.8921 36.7316 29.3223 36.7173 30.7526C36.7044 32.0999 35.8062 33.0982 34.4718 32.9681C32.5452 32.7807 31.0063 33.2313 29.8191 34.8432C29.3686 35.4539 28.9324 35.3924 28.3603 34.8532C28.0556 34.5671 27.7967 34.3655 27.3719 34.6315C26.9071 34.9233 26.1619 34.8904 26.2678 35.7757C26.345 36.4308 25.956 36.7254 25.3095 36.7183C24.3798 36.7082 23.4501 36.714 22.5205 36.7154C21.9012 36.7168 21.5379 36.4079 21.6151 35.7957C21.7252 34.9175 21.0001 34.929 20.5295 34.6372C20.0675 34.3512 19.7901 34.5786 19.4869 34.8918C19.0134 35.3781 18.5271 35.3466 18.0566 34.8718C18.0237 34.8374 17.9808 34.8103 17.955 34.7717C16.878 33.1597 15.3391 32.8994 13.5026 32.9624C9.83682 33.0882 6.16246 33.0024 2.49096 32.9981C0.821831 32.9967 0.00371595 32.1729 0.00371595 30.488C-0.00057486 21.1698 -0.00057486 11.8501 0.000855411 2.53051C0.000855411 0.80846 0.811819 0.00321811 2.54102 0.00178784C7.8087 -0.0010727 13.0764 0.000357568 18.3441 0.000357568ZM18.367 5.72144C23.7033 5.72144 29.0382 5.71286 34.3745 5.73288C34.9867 5.73574 35.2441 5.57984 35.1969 4.93336C35.1469 4.24683 35.1869 3.55315 35.1855 2.86233C35.1826 1.71668 35.0053 1.53647 33.8611 1.53647C28.4775 1.53504 23.094 1.53647 17.7105 1.53647C12.7803 1.53647 7.84875 1.53647 2.91861 1.53647C1.70717 1.53647 1.53983 1.70095 1.53697 2.87663C1.53554 3.52025 1.5813 4.16673 1.52409 4.80464C1.46116 5.51977 1.69287 5.74289 2.43231 5.7386C7.74291 5.70714 13.0549 5.72144 18.367 5.72144ZM18.3941 23.0449C18.3813 23.1035 18.3813 23.2337 18.3255 23.3324C17.8978 24.1076 17.5746 24.9228 17.3143 25.7681C17.1941 26.1586 16.8537 26.3102 16.4618 26.273C15.7825 26.2086 15.8311 26.6577 15.8325 27.104C15.8339 27.5288 15.7953 27.9464 16.4304 27.8935C17.0096 27.8463 17.29 28.1753 17.4258 28.7059C17.5846 29.3309 17.8192 29.9331 18.1581 30.4837C18.4757 30.9986 18.4914 31.4792 18.0294 31.9011C17.5517 32.3373 17.9822 32.5504 18.2282 32.8065C18.4842 33.0711 18.7117 33.4501 19.1364 32.9752C19.5283 32.5376 19.996 32.5376 20.4909 32.8379C21.0644 33.1855 21.6852 33.4358 22.3345 33.6003C22.8737 33.7361 23.1712 34.0408 23.1283 34.6115C23.0783 35.2651 23.5345 35.1821 23.9393 35.1836C24.3469 35.185 24.796 35.2565 24.7445 34.6072C24.7002 34.0336 25.0048 33.7361 25.5412 33.5988C26.1905 33.4344 26.8113 33.1855 27.3848 32.8365C27.8811 32.5347 28.346 32.5447 28.7393 32.9781C29.1641 33.4472 29.39 33.0711 29.6475 32.8036C29.8964 32.5462 30.3154 32.3302 29.8392 31.8968C29.3757 31.4749 29.3986 30.9929 29.7147 30.4794C30.0537 29.9288 30.2883 29.3266 30.447 28.7002C30.5829 28.1681 30.8675 27.8434 31.4453 27.8906C32.0847 27.9421 32.0489 27.5173 32.036 27.0968C32.0246 26.7035 32.1419 26.2258 31.4782 26.2744C30.8647 26.3188 30.5743 25.9855 30.4356 25.4248C30.2854 24.8227 30.0594 24.2406 29.7305 23.7128C29.3958 23.175 29.3815 22.6859 29.862 22.2353C30.3498 21.7777 29.8334 21.5874 29.616 21.3357C29.3886 21.074 29.1612 20.7307 28.765 21.1669C28.3474 21.6246 27.8697 21.6318 27.3505 21.3114C26.7798 20.9581 26.1519 20.725 25.504 20.5562C24.9977 20.4246 24.7016 20.1314 24.7474 19.5922C24.8003 18.97 24.4084 18.97 23.9708 18.98C23.5388 18.9901 23.0683 18.9028 23.1255 19.5951C23.1698 20.1357 22.8709 20.426 22.366 20.5576C21.7181 20.7264 21.0916 20.9624 20.5209 21.3142C20.0003 21.6346 19.524 21.6232 19.1064 21.1655C18.7074 20.7278 18.4828 21.0811 18.2554 21.34C18.0337 21.5903 17.5274 21.7819 18.0108 22.2411C18.2196 22.4413 18.3898 22.6744 18.3941 23.0449Z" fill="white"/>
<path d="M9.63398 22.1369C9.18201 22.1369 8.72862 22.1298 8.27665 22.1384C7.63875 22.1498 7.31408 21.8709 7.28976 21.2058C7.25687 20.309 6.6204 19.9572 5.78941 20.3691C5.20586 20.658 4.78536 20.5236 4.46784 19.9772C4.00157 19.1748 3.5353 18.3725 3.07047 17.5686C2.75581 17.0223 2.85306 16.5918 3.38799 16.2242C4.12314 15.7179 4.12744 15.0356 3.40086 14.5222C2.84734 14.1317 2.75438 13.6897 3.09764 13.1162C3.56105 12.3396 4.00443 11.5515 4.46069 10.7706C4.79394 10.2013 5.22016 10.0612 5.83518 10.3915C6.59465 10.8006 7.26116 10.4058 7.28976 9.54339C7.31122 8.88976 7.60585 8.58082 8.2552 8.58511C9.18201 8.59083 10.1117 8.59655 11.0399 8.58225C11.6907 8.57224 11.9882 8.90263 12.0712 9.51622C12.2056 10.506 12.669 10.7706 13.5672 10.3486C14.1265 10.0855 14.5355 10.2142 14.8373 10.7248C15.3079 11.5243 15.7727 12.3296 16.2275 13.1377C16.545 13.7026 16.4621 14.1646 15.8871 14.5408C15.182 15.0027 15.1849 15.695 15.8628 16.1856C16.4878 16.639 16.5736 16.9593 16.1989 17.6359C15.7613 18.4268 15.3036 19.2077 14.8445 19.9872C14.5255 20.5279 14.0979 20.6566 13.5172 20.3591C12.7305 19.9558 12.187 20.2561 12.0769 21.1143C11.9725 21.9295 11.7565 22.1241 10.9212 22.1369C10.4907 22.1441 10.0616 22.1384 9.63398 22.1369ZM5.65353 12.1679C5.24591 12.3281 5.18584 12.7758 4.95842 13.089C4.77392 13.3451 4.90407 13.5253 5.13435 13.6754C5.53911 13.94 5.64924 14.3076 5.57916 14.7868C5.52195 15.1815 5.52481 15.5977 5.5763 15.9939C5.63494 16.4473 5.53339 16.8049 5.14436 17.0394C4.64805 17.3398 4.94412 17.6502 5.13149 17.9305C5.31742 18.2065 5.35461 18.7071 5.94531 18.4468C6.48023 18.2123 8.52123 19.1834 8.75293 19.7269C8.7987 19.8328 8.82444 19.9586 8.81872 20.073C8.79155 20.6208 9.16342 20.6294 9.53529 20.5908C9.88856 20.5536 10.4206 20.8082 10.4464 20.1288C10.465 19.6239 10.7739 19.3794 11.1915 19.1848C11.5348 19.0261 11.8724 18.8387 12.1799 18.6185C12.5575 18.3481 12.9236 18.2208 13.3727 18.4282C14.0249 18.7286 14.0278 18.0835 14.2566 17.7875C14.4583 17.5286 14.5884 17.2583 14.1622 17.0423C13.8018 16.8592 13.7188 16.5174 13.7288 16.1326C13.7431 15.6092 13.7403 15.0857 13.7288 14.5622C13.7203 14.2018 13.8061 13.8871 14.1393 13.7141C14.6485 13.4509 14.4039 13.1391 14.2066 12.8459C14.0063 12.547 13.972 12.0235 13.3455 12.2909C12.7777 12.5341 10.7296 11.5114 10.5093 10.935C10.4836 10.8693 10.4592 10.7963 10.4621 10.7277C10.4993 9.98249 9.95579 10.1513 9.52671 10.1212C9.07903 10.0898 8.77867 10.1899 8.81014 10.7305C8.82587 11.0109 8.68428 11.3083 8.42969 11.3656C7.49858 11.5772 6.89358 12.9102 5.65353 12.1679Z" fill="white"/>
<path d="M24.2887 15.693C23.1473 15.693 22.0059 15.6901 20.866 15.6944C20.3525 15.6958 19.9392 15.5299 19.9206 14.9621C19.9006 14.3528 20.3211 14.1611 20.8689 14.1611C23.1745 14.164 25.4815 14.1626 27.7871 14.1626C28.3063 14.1626 28.691 14.3514 28.691 14.9292C28.691 15.5084 28.302 15.693 27.7842 15.693C26.6186 15.693 25.4543 15.693 24.2887 15.693Z" fill="white"/>
<path d="M29.0225 12.2606C28.0456 12.2606 27.0702 12.2577 26.0933 12.262C25.577 12.2649 25.1665 12.0875 25.1536 11.5211C25.1407 10.9104 25.5655 10.7273 26.1133 10.7288C28.0428 10.7331 29.9708 10.7316 31.9002 10.7302C32.4122 10.7302 32.8213 10.8904 32.8342 11.4711C32.847 12.0947 32.4251 12.2649 31.8802 12.2634C30.9276 12.2577 29.975 12.2606 29.0225 12.2606Z" fill="white"/>
<path d="M6.71189 29.707C6.04681 29.7085 5.38174 29.7142 4.71666 29.7056C4.21893 29.6999 3.88281 29.4725 3.88281 28.9433C3.88424 28.4126 4.22179 28.1852 4.71952 28.1838C6.09687 28.1781 7.47422 28.1781 8.85157 28.1867C9.31927 28.1895 9.63822 28.4284 9.65395 28.9118C9.67112 29.4324 9.35217 29.6942 8.84871 29.7042C8.13787 29.717 7.42416 29.7056 6.71189 29.707Z" fill="white"/>
<path d="M9.61639 24.7497C10.1871 24.7497 10.7577 24.7397 11.3284 24.7526C11.7961 24.764 12.1136 24.9957 12.1265 25.4834C12.1394 26.0083 11.8161 26.2658 11.3141 26.2701C10.1728 26.2815 9.02998 26.2801 7.88862 26.2686C7.41949 26.2644 7.09339 26.0112 7.08052 25.5392C7.06621 25.0257 7.40233 24.7654 7.90292 24.7526C8.4736 24.7383 9.04571 24.7497 9.61639 24.7497Z" fill="white"/>
<path d="M21.5796 10.7493C21.8885 10.7493 22.2032 10.715 22.5064 10.7579C22.9083 10.8137 23.1414 11.0783 23.1428 11.4931C23.1443 11.9078 22.9154 12.2039 22.5135 12.2297C21.8513 12.2726 21.1791 12.2783 20.5183 12.2239C20.1207 12.191 19.9004 11.875 19.9147 11.4645C19.9276 11.0869 20.1464 10.8194 20.5126 10.7665C20.8616 10.7164 21.2248 10.755 21.581 10.755C21.5796 10.7536 21.5796 10.7508 21.5796 10.7493Z" fill="white"/>
<path d="M31.473 15.6948C30.5304 15.6934 30.1128 15.4603 30.1113 14.9296C30.1085 14.399 30.529 14.1602 31.4687 14.1602C32.497 14.1587 32.8675 14.3747 32.8432 14.9611C32.8203 15.5204 32.4913 15.6963 31.473 15.6948Z" fill="white"/>
<path d="M24.4388 2.86126C26.773 2.86126 29.1087 2.86126 31.4429 2.86126C31.6331 2.86126 31.8247 2.85983 32.015 2.86698C32.5184 2.88414 32.8431 3.11728 32.8359 3.64648C32.8288 4.13706 32.5199 4.36447 32.0493 4.38736C31.8591 4.39737 31.6688 4.39451 31.4772 4.39451C26.7358 4.39451 21.9945 4.39451 17.2546 4.39451C17.1116 4.39451 16.9685 4.39165 16.8255 4.39308C16.3106 4.39737 15.9101 4.22431 15.8987 3.64362C15.8872 3.06722 16.2663 2.86412 16.7912 2.86126C16.9814 2.85983 17.1731 2.8584 17.3633 2.8584C19.7218 2.86126 22.0803 2.86126 24.4388 2.86126Z" fill="white"/>
<path d="M23.9245 22.333C26.5133 22.3273 28.6758 24.4684 28.6901 27.0543C28.7045 29.6717 26.5319 31.8486 23.9145 31.8372C21.3285 31.8257 19.1831 29.666 19.1846 27.0787C19.186 24.4927 21.3371 22.3387 23.9245 22.333ZM23.9445 30.2024C25.7166 30.1995 27.0582 28.8508 27.0539 27.0758C27.0496 25.3008 25.708 23.9664 23.9288 23.9692C22.1538 23.9721 20.8194 25.3137 20.8208 27.093C20.8237 28.8679 22.1653 30.2038 23.9445 30.2024Z" fill="white"/>
<path d="M9.64785 17.8419C8.23331 17.8405 7.15775 16.7692 7.15918 15.3604C7.16061 13.9631 8.24905 12.8818 9.65929 12.8789C11.0638 12.8761 12.1494 13.9631 12.1451 15.369C12.1422 16.7793 11.0695 17.8434 9.64785 17.8419ZM9.63927 14.5094C9.09005 14.5237 8.76537 14.8741 8.7997 15.4234C8.8326 15.9611 9.15012 16.2744 9.66072 16.2615C10.1914 16.2486 10.536 15.9139 10.5661 15.3604C10.5918 14.8684 10.1627 14.4951 9.63927 14.5094Z" fill="white"/>
</svg>
